<?xml version="1.0" encoding="UTF-8"?><svg xmlns="http://www.w3.org/2000/svg" viewBox="0 0 2787.2 2366.9"><defs><style>.d{fill:#0b1f67;}.e{fill:#6f7fbf;}</style></defs><g id="a"/><g id="b"><g id="c"><g><path class="d" d="M0,0V333.4c0,14.1,4.2,27.9,12,39.6l212.7,319c7.8,11.7,12,25.5,12,39.6v903.5c0,14.1-4.2,27.9-12,39.6L12,1993.9c-7.8,11.7-12,25.5-12,39.6v333.4H165.7v-309.7c0-14.1,4.2-27.9,12-39.6l212.7-319c7.8-11.7,12-25.5,12-39.6V708c0-14.1-4.2-27.9-12-39.6L177.7,349.4c-7.8-11.7-12-25.5-12-39.6V0H0Z"/><path class="d" d="M233.8,0V286.1c0,14.1,4.2,27.9,12,39.6l212.7,319c7.8,11.7,12,25.5,12,39.6v998.2c0,14.1-4.2,27.9-12,39.6l-212.7,319c-7.8,11.7-12,25.5-12,39.6v286.1h165.7v-262.4c0-14.1,4.2-27.9,12-39.6l212.7-319c7.8-11.7,12-25.5,12-39.6V660.7c0-14.1-4.2-27.9-12-39.6l-212.7-319c-7.8-11.7-12-25.5-12-39.6V0H233.8Z"/></g><g><path class="d" d="M2787.2,0V333.4c0,14.1-4.2,27.9-12,39.6l-212.7,319c-7.8,11.7-12,25.5-12,39.6v903.5c0,14.1,4.2,27.9,12,39.6l212.7,319c7.8,11.7,12,25.5,12,39.6v333.4h-165.7v-309.7c0-14.1-4.2-27.9-12-39.6l-212.7-319c-7.8-11.7-12-25.5-12-39.6V708c0-14.1,4.2-27.9,12-39.6l212.7-319c7.8-11.7,12-25.5,12-39.6V0h165.7Z"/><path class="d" d="M2553.4,0V286.1c0,14.1-4.2,27.9-12,39.6l-212.7,319c-7.8,11.7-12,25.5-12,39.6v998.2c0,14.1,4.2,27.9,12,39.6l212.7,319c7.8,11.7,12,25.5,12,39.6v286.1h-165.7v-262.4c0-14.1-4.2-27.9-12-39.6l-212.7-319c-7.8-11.7-12-25.5-12-39.6V660.7c0-14.1,4.2-27.9,12-39.6l212.7-319c7.8-11.7,12-25.5,12-39.6V0h165.7Z"/></g><g><path class="e" d="M399.5,0V262.4c0,14.1,4.2,27.9,12,39.6l212.7,319c7.8,11.7,12,25.5,12,39.6V1706.2c0,14.1-4.2,27.9-12,39.6l-212.7,319c-7.8,11.7-12,25.5-12,39.6v262.4h165.7v-238.7c0-14.1,4.2-27.9,12-39.6l212.7-319c7.8-11.7,12-25.5,12-39.6V637c0-14.1-4.2-27.9-12-39.6l-212.7-319c-7.8-11.7-12-25.5-12-39.6V0h-165.7Z"/><path class="e" d="M636.2,0V215.1c0,14.1,4.2,27.9,12,39.6l212.7,319c7.8,11.7,12,25.5,12,39.6V1753.6c0,14.1-4.2,27.9-12,39.6l-212.7,319c-7.8,11.7-12,25.5-12,39.6v215.1h165.7v-191.4c0-14.1,4.2-27.9,12-39.6l212.7-319c7.8-11.7,12-25.5,12-39.6V589.7c0-14.1-4.2-27.9-12-39.6l-212.7-319c-7.8-11.7-12-25.5-12-39.6V0h-165.7Z"/></g><g><path class="e" d="M2387.7,0V262.4c0,14.1-4.2,27.9-12,39.6l-212.7,319c-7.8,11.7-12,25.5-12,39.6V1706.2c0,14.1,4.2,27.9,12,39.6l212.7,319c7.8,11.7,12,25.5,12,39.6v262.4h-165.7v-238.7c0-14.1-4.2-27.9-12-39.6l-212.7-319c-7.8-11.7-12-25.5-12-39.6V637c0-14.1,4.2-27.9,12-39.6l212.7-319c7.8-11.7,12-25.5,12-39.6V0h165.7Z"/><path class="e" d="M2151,0V215.1c0,14.1-4.2,27.9-12,39.6l-212.7,319c-7.8,11.7-12,25.5-12,39.6V1753.6c0,14.1,4.2,27.9,12,39.6l212.7,319c7.8,11.7,12,25.5,12,39.6v215.1h-165.7v-191.4c0-14.1-4.2-27.9-12-39.6l-212.7-319c-7.8-11.7-12-25.5-12-39.6V589.7c0-14.1,4.2-27.9,12-39.6l212.7-319c7.8-11.7,12-25.5,12-39.6V0h165.7Z"/></g><g><rect class="d" x="1038.6" y="0" width="189.4" height="2366.9"/><rect class="d" x="1298.9" y="0" width="189.4" height="2366.9"/><rect class="d" x="1559.3" y="0" width="189.4" height="2366.9"/></g></g></g></svg>